<mxfile host="65bd71144e">
    <diagram id="LQAq46JzgSH9MMckGsIM" name="Page-1">
        <mxGraphModel dx="1058" dy="399" grid="1" gridSize="10" guides="1" tooltips="1" connect="1" arrows="1" fold="1" page="1" pageScale="1" pageWidth="1920" pageHeight="1200" math="0" shadow="0">
            <root>
                <mxCell id="0"/>
                <mxCell id="1" parent="0"/>
                <mxCell id="vXu9Ql8eu3LgkFeFbtVx-56" style="edgeStyle=orthogonalEdgeStyle;curved=1;html=1;exitX=0.5;exitY=1;exitDx=0;exitDy=0;rounded=0;" parent="1" source="3" target="vXu9Ql8eu3LgkFeFbtVx-14" edge="1">
                    <mxGeometry relative="1" as="geometry">
                        <mxPoint x="860.9799999999996" y="110.99000000000001" as="sourcePoint"/>
                        <Array as="points">
                            <mxPoint x="860" y="111"/>
                            <mxPoint x="1250" y="111"/>
                        </Array>
                    </mxGeometry>
                </mxCell>
                <mxCell id="vXu9Ql8eu3LgkFeFbtVx-57" style="edgeStyle=orthogonalEdgeStyle;curved=1;html=1;entryX=0.5;entryY=0;entryDx=0;entryDy=0;rounded=0;exitX=0.5;exitY=1;exitDx=0;exitDy=0;" parent="1" source="3" target="11" edge="1">
                    <mxGeometry relative="1" as="geometry">
                        <mxPoint x="860" y="140" as="sourcePoint"/>
                    </mxGeometry>
                </mxCell>
                <mxCell id="vXu9Ql8eu3LgkFeFbtVx-58" style="edgeStyle=orthogonalEdgeStyle;curved=1;html=1;entryX=0.5;entryY=0;entryDx=0;entryDy=0;exitX=0.5;exitY=1;exitDx=0;exitDy=0;rounded=0;" parent="1" source="3" target="7" edge="1">
                    <mxGeometry relative="1" as="geometry">
                        <mxPoint x="855.9399999999996" y="110" as="sourcePoint"/>
                        <Array as="points">
                            <mxPoint x="860" y="120"/>
                            <mxPoint x="390" y="120"/>
                        </Array>
                    </mxGeometry>
                </mxCell>
                <mxCell id="3" value="App" style="swimlane;fontStyle=0;childLayout=stackLayout;horizontal=1;startSize=30;horizontalStack=0;resizeParent=1;resizeParentMax=0;resizeLast=0;collapsible=1;marginBottom=0;whiteSpace=wrap;html=1;fillColor=#000000;swimlaneLine=1;rounded=0;shadow=0;glass=0;perimeterSpacing=1;" parent="1" vertex="1">
                    <mxGeometry x="790" y="20" width="140" height="60" as="geometry"/>
                </mxCell>
                <mxCell id="7" value="Header" style="swimlane;fontStyle=0;childLayout=stackLayout;horizontal=1;startSize=30;horizontalStack=0;resizeParent=1;resizeParentMax=0;resizeLast=0;collapsible=1;marginBottom=0;whiteSpace=wrap;html=1;fillColor=#e51400;fontColor=#ffffff;strokeColor=#FFFFFF;rounded=0;" parent="1" vertex="1">
                    <mxGeometry x="320" y="200" width="140" height="60" as="geometry"/>
                </mxCell>
                <mxCell id="vXu9Ql8eu3LgkFeFbtVx-47" style="edgeStyle=orthogonalEdgeStyle;curved=1;html=1;entryX=0.5;entryY=0;entryDx=0;entryDy=0;exitX=0.521;exitY=0.967;exitDx=0;exitDy=0;exitPerimeter=0;rounded=0;" parent="1" source="13" target="vXu9Ql8eu3LgkFeFbtVx-24" edge="1">
                    <mxGeometry relative="1" as="geometry"/>
                </mxCell>
                <mxCell id="vXu9Ql8eu3LgkFeFbtVx-53" style="edgeStyle=orthogonalEdgeStyle;curved=1;html=1;exitX=0.5;exitY=1;exitDx=0;exitDy=0;exitPerimeter=0;rounded=0;" parent="1" source="13" target="vXu9Ql8eu3LgkFeFbtVx-18" edge="1">
                    <mxGeometry relative="1" as="geometry"/>
                </mxCell>
                <mxCell id="20" style="edgeStyle=orthogonalEdgeStyle;curved=1;html=1;entryX=0.5;entryY=0;entryDx=0;entryDy=0;" parent="1" source="11" target="15" edge="1">
                    <mxGeometry relative="1" as="geometry"/>
                </mxCell>
                <mxCell id="11" value="Body" style="swimlane;fontStyle=0;childLayout=stackLayout;horizontal=1;startSize=30;horizontalStack=0;resizeParent=1;resizeParentMax=0;resizeLast=0;collapsible=1;marginBottom=0;whiteSpace=wrap;html=1;fillColor=#1ba1e2;fontColor=#ffffff;strokeColor=#FFFFFF;swimlaneFillColor=none;rounded=0;" parent="1" vertex="1">
                    <mxGeometry x="620" y="200" width="140" height="90" as="geometry"/>
                </mxCell>
                <mxCell id="12" value="Props" style="text;strokeColor=default;fillColor=none;align=left;verticalAlign=middle;spacingLeft=4;spacingRight=4;overflow=hidden;points=[[0,0.5],[1,0.5]];portConstraint=eastwest;rotatable=0;whiteSpace=wrap;html=1;rounded=0;" parent="11" vertex="1">
                    <mxGeometry y="30" width="140" height="30" as="geometry"/>
                </mxCell>
                <mxCell id="13" value="State: Parks [ ]" style="text;strokeColor=none;fillColor=none;align=left;verticalAlign=middle;spacingLeft=4;spacingRight=4;overflow=hidden;points=[[0,0.5],[1,0.5]];portConstraint=eastwest;rotatable=0;whiteSpace=wrap;html=1;rounded=0;" parent="11" vertex="1">
                    <mxGeometry y="60" width="140" height="30" as="geometry"/>
                </mxCell>
                <mxCell id="vXu9Ql8eu3LgkFeFbtVx-51" style="edgeStyle=orthogonalEdgeStyle;curved=1;html=1;rounded=0;" parent="1" source="vXu9Ql8eu3LgkFeFbtVx-14" target="vXu9Ql8eu3LgkFeFbtVx-36" edge="1">
                    <mxGeometry relative="1" as="geometry"/>
                </mxCell>
                <mxCell id="vXu9Ql8eu3LgkFeFbtVx-59" style="edgeStyle=orthogonalEdgeStyle;curved=1;html=1;entryX=0.5;entryY=0;entryDx=0;entryDy=0;exitX=0.5;exitY=1;exitDx=0;exitDy=0;exitPerimeter=0;rounded=0;" parent="1" source="vXu9Ql8eu3LgkFeFbtVx-16" target="vXu9Ql8eu3LgkFeFbtVx-32" edge="1">
                    <mxGeometry relative="1" as="geometry"/>
                </mxCell>
                <mxCell id="vXu9Ql8eu3LgkFeFbtVx-60" style="edgeStyle=orthogonalEdgeStyle;curved=1;html=1;entryX=0.5;entryY=0;entryDx=0;entryDy=0;exitX=0.479;exitY=1.033;exitDx=0;exitDy=0;exitPerimeter=0;rounded=0;" parent="1" source="vXu9Ql8eu3LgkFeFbtVx-16" target="vXu9Ql8eu3LgkFeFbtVx-40" edge="1">
                    <mxGeometry relative="1" as="geometry"/>
                </mxCell>
                <mxCell id="vXu9Ql8eu3LgkFeFbtVx-14" value="Profile" style="swimlane;fontStyle=0;childLayout=stackLayout;horizontal=1;startSize=30;horizontalStack=0;resizeParent=1;resizeParentMax=0;resizeLast=0;collapsible=1;marginBottom=0;whiteSpace=wrap;html=1;fillColor=#008a00;fontColor=#ffffff;strokeColor=#FFFFFF;rounded=0;" parent="1" vertex="1">
                    <mxGeometry x="1180" y="200" width="140" height="90" as="geometry"/>
                </mxCell>
                <mxCell id="vXu9Ql8eu3LgkFeFbtVx-15" value="Props" style="text;strokeColor=default;fillColor=none;align=left;verticalAlign=middle;spacingLeft=4;spacingRight=4;overflow=hidden;points=[[0,0.5],[1,0.5]];portConstraint=eastwest;rotatable=0;whiteSpace=wrap;html=1;rounded=0;" parent="vXu9Ql8eu3LgkFeFbtVx-14" vertex="1">
                    <mxGeometry y="30" width="140" height="30" as="geometry"/>
                </mxCell>
                <mxCell id="vXu9Ql8eu3LgkFeFbtVx-16" value="State" style="text;strokeColor=none;fillColor=none;align=left;verticalAlign=middle;spacingLeft=4;spacingRight=4;overflow=hidden;points=[[0,0.5],[1,0.5]];portConstraint=eastwest;rotatable=0;whiteSpace=wrap;html=1;rounded=0;" parent="vXu9Ql8eu3LgkFeFbtVx-14" vertex="1">
                    <mxGeometry y="60" width="140" height="30" as="geometry"/>
                </mxCell>
                <mxCell id="vXu9Ql8eu3LgkFeFbtVx-18" value="Map" style="swimlane;fontStyle=0;childLayout=stackLayout;horizontal=1;startSize=30;horizontalStack=0;resizeParent=1;resizeParentMax=0;resizeLast=0;collapsible=1;marginBottom=0;whiteSpace=wrap;html=1;fillColor=#1ba1e2;fontColor=#ffffff;strokeColor=#FFFFFF;rounded=0;" parent="1" vertex="1">
                    <mxGeometry x="350" y="400" width="180" height="90" as="geometry"/>
                </mxCell>
                <mxCell id="vXu9Ql8eu3LgkFeFbtVx-19" value="Event: onClick nav to National Park State" style="text;strokeColor=default;fillColor=none;align=left;verticalAlign=middle;spacingLeft=4;spacingRight=4;overflow=hidden;points=[[0,0.5],[1,0.5]];portConstraint=eastwest;rotatable=0;whiteSpace=wrap;html=1;rounded=0;" parent="vXu9Ql8eu3LgkFeFbtVx-18" vertex="1">
                    <mxGeometry y="30" width="180" height="30" as="geometry"/>
                </mxCell>
                <mxCell id="vXu9Ql8eu3LgkFeFbtVx-20" value="State" style="text;strokeColor=none;fillColor=none;align=left;verticalAlign=middle;spacingLeft=4;spacingRight=4;overflow=hidden;points=[[0,0.5],[1,0.5]];portConstraint=eastwest;rotatable=0;whiteSpace=wrap;html=1;rounded=0;" parent="vXu9Ql8eu3LgkFeFbtVx-18" vertex="1">
                    <mxGeometry y="60" width="180" height="30" as="geometry"/>
                </mxCell>
                <mxCell id="vXu9Ql8eu3LgkFeFbtVx-55" style="edgeStyle=orthogonalEdgeStyle;curved=1;html=1;entryX=0.5;entryY=0;entryDx=0;entryDy=0;rounded=0;" parent="1" source="vXu9Ql8eu3LgkFeFbtVx-24" target="vXu9Ql8eu3LgkFeFbtVx-28" edge="1">
                    <mxGeometry relative="1" as="geometry"/>
                </mxCell>
                <mxCell id="vXu9Ql8eu3LgkFeFbtVx-24" value="Park List" style="swimlane;fontStyle=0;childLayout=stackLayout;horizontal=1;startSize=30;horizontalStack=0;resizeParent=1;resizeParentMax=0;resizeLast=0;collapsible=1;marginBottom=0;whiteSpace=wrap;html=1;fillColor=#1ba1e2;fontColor=#ffffff;strokeColor=#FFFFFF;rounded=0;" parent="1" vertex="1">
                    <mxGeometry x="750" y="400" width="140" height="90" as="geometry"/>
                </mxCell>
                <mxCell id="vXu9Ql8eu3LgkFeFbtVx-25" value="Props" style="text;strokeColor=default;fillColor=none;align=left;verticalAlign=middle;spacingLeft=4;spacingRight=4;overflow=hidden;points=[[0,0.5],[1,0.5]];portConstraint=eastwest;rotatable=0;whiteSpace=wrap;html=1;rounded=0;" parent="vXu9Ql8eu3LgkFeFbtVx-24" vertex="1">
                    <mxGeometry y="30" width="140" height="30" as="geometry"/>
                </mxCell>
                <mxCell id="vXu9Ql8eu3LgkFeFbtVx-26" value="State: Parks [ ]" style="text;strokeColor=default;fillColor=none;align=left;verticalAlign=middle;spacingLeft=4;spacingRight=4;overflow=hidden;points=[[0,0.5],[1,0.5]];portConstraint=eastwest;rotatable=0;whiteSpace=wrap;html=1;rounded=0;" parent="vXu9Ql8eu3LgkFeFbtVx-24" vertex="1">
                    <mxGeometry y="60" width="140" height="30" as="geometry"/>
                </mxCell>
                <mxCell id="vXu9Ql8eu3LgkFeFbtVx-64" style="edgeStyle=orthogonalEdgeStyle;curved=1;html=1;entryX=0.5;entryY=0;entryDx=0;entryDy=0;rounded=0;" parent="1" source="vXu9Ql8eu3LgkFeFbtVx-28" target="vXu9Ql8eu3LgkFeFbtVx-61" edge="1">
                    <mxGeometry relative="1" as="geometry"/>
                </mxCell>
                <mxCell id="vXu9Ql8eu3LgkFeFbtVx-28" value="Park Card" style="swimlane;fontStyle=0;childLayout=stackLayout;horizontal=1;startSize=30;horizontalStack=0;resizeParent=1;resizeParentMax=0;resizeLast=0;collapsible=1;marginBottom=0;whiteSpace=wrap;html=1;fillColor=#1ba1e2;fontColor=#ffffff;strokeColor=#FFFFFF;rounded=0;" parent="1" vertex="1">
                    <mxGeometry x="750" y="550" width="190" height="90" as="geometry"/>
                </mxCell>
                <mxCell id="vXu9Ql8eu3LgkFeFbtVx-29" value="Event: onClick =&amp;gt; icon, onClickimage =&amp;gt; ShowDetails" style="text;strokeColor=none;fillColor=none;align=left;verticalAlign=middle;spacingLeft=4;spacingRight=4;overflow=hidden;points=[[0,0.5],[1,0.5]];portConstraint=eastwest;rotatable=0;whiteSpace=wrap;html=1;rounded=0;" parent="vXu9Ql8eu3LgkFeFbtVx-28" vertex="1">
                    <mxGeometry y="30" width="190" height="30" as="geometry"/>
                </mxCell>
                <mxCell id="vXu9Ql8eu3LgkFeFbtVx-30" value="State" style="text;strokeColor=default;fillColor=none;align=left;verticalAlign=middle;spacingLeft=4;spacingRight=4;overflow=hidden;points=[[0,0.5],[1,0.5]];portConstraint=eastwest;rotatable=0;whiteSpace=wrap;html=1;rounded=0;" parent="vXu9Ql8eu3LgkFeFbtVx-28" vertex="1">
                    <mxGeometry y="60" width="190" height="30" as="geometry"/>
                </mxCell>
                <mxCell id="vXu9Ql8eu3LgkFeFbtVx-32" value="Review Form" style="swimlane;fontStyle=0;childLayout=stackLayout;horizontal=1;startSize=30;horizontalStack=0;resizeParent=1;resizeParentMax=0;resizeLast=0;collapsible=1;marginBottom=0;whiteSpace=wrap;html=1;fillColor=#008a00;fontColor=#ffffff;strokeColor=#FFFFFF;rounded=0;" parent="1" vertex="1">
                    <mxGeometry x="1350" y="400" width="140" height="90" as="geometry"/>
                </mxCell>
                <mxCell id="vXu9Ql8eu3LgkFeFbtVx-33" value="Event: submit. =&amp;gt; addreview" style="text;strokeColor=default;fillColor=none;align=left;verticalAlign=middle;spacingLeft=4;spacingRight=4;overflow=hidden;points=[[0,0.5],[1,0.5]];portConstraint=eastwest;rotatable=0;whiteSpace=wrap;html=1;rounded=0;" parent="vXu9Ql8eu3LgkFeFbtVx-32" vertex="1">
                    <mxGeometry y="30" width="140" height="30" as="geometry"/>
                </mxCell>
                <mxCell id="vXu9Ql8eu3LgkFeFbtVx-34" value="State: formData" style="text;strokeColor=default;fillColor=none;align=left;verticalAlign=middle;spacingLeft=4;spacingRight=4;overflow=hidden;points=[[0,0.5],[1,0.5]];portConstraint=eastwest;rotatable=0;whiteSpace=wrap;html=1;rounded=0;" parent="vXu9Ql8eu3LgkFeFbtVx-32" vertex="1">
                    <mxGeometry y="60" width="140" height="30" as="geometry"/>
                </mxCell>
                <mxCell id="vXu9Ql8eu3LgkFeFbtVx-36" value="Reviews" style="swimlane;fontStyle=0;childLayout=stackLayout;horizontal=1;startSize=30;horizontalStack=0;resizeParent=1;resizeParentMax=0;resizeLast=0;collapsible=1;marginBottom=0;whiteSpace=wrap;html=1;fillColor=#008a00;fontColor=#ffffff;strokeColor=#FFFFFF;rounded=0;" parent="1" vertex="1">
                    <mxGeometry x="1180" y="400" width="140" height="90" as="geometry"/>
                </mxCell>
                <mxCell id="vXu9Ql8eu3LgkFeFbtVx-37" value="Review[]" style="text;strokeColor=default;fillColor=none;align=left;verticalAlign=middle;spacingLeft=4;spacingRight=4;overflow=hidden;points=[[0,0.5],[1,0.5]];portConstraint=eastwest;rotatable=0;whiteSpace=wrap;html=1;rounded=0;" parent="vXu9Ql8eu3LgkFeFbtVx-36" vertex="1">
                    <mxGeometry y="30" width="140" height="30" as="geometry"/>
                </mxCell>
                <mxCell id="vXu9Ql8eu3LgkFeFbtVx-38" value="State" style="text;strokeColor=none;fillColor=none;align=left;verticalAlign=middle;spacingLeft=4;spacingRight=4;overflow=hidden;points=[[0,0.5],[1,0.5]];portConstraint=eastwest;rotatable=0;whiteSpace=wrap;html=1;rounded=0;" parent="vXu9Ql8eu3LgkFeFbtVx-36" vertex="1">
                    <mxGeometry y="60" width="140" height="30" as="geometry"/>
                </mxCell>
                <mxCell id="vXu9Ql8eu3LgkFeFbtVx-40" value="Wish List" style="swimlane;fontStyle=0;childLayout=stackLayout;horizontal=1;startSize=30;horizontalStack=0;resizeParent=1;resizeParentMax=0;resizeLast=0;collapsible=1;marginBottom=0;whiteSpace=wrap;html=1;fillColor=#008a00;fontColor=#ffffff;strokeColor=#005700;rounded=0;" parent="1" vertex="1">
                    <mxGeometry x="1010" y="400" width="140" height="90" as="geometry"/>
                </mxCell>
                <mxCell id="vXu9Ql8eu3LgkFeFbtVx-41" value="WishList[]" style="text;strokeColor=default;fillColor=none;align=left;verticalAlign=middle;spacingLeft=4;spacingRight=4;overflow=hidden;points=[[0,0.5],[1,0.5]];portConstraint=eastwest;rotatable=0;whiteSpace=wrap;html=1;rounded=0;" parent="vXu9Ql8eu3LgkFeFbtVx-40" vertex="1">
                    <mxGeometry y="30" width="140" height="30" as="geometry"/>
                </mxCell>
                <mxCell id="vXu9Ql8eu3LgkFeFbtVx-42" value="State" style="text;strokeColor=default;fillColor=none;align=left;verticalAlign=middle;spacingLeft=4;spacingRight=4;overflow=hidden;points=[[0,0.5],[1,0.5]];portConstraint=eastwest;rotatable=0;whiteSpace=wrap;html=1;rounded=0;" parent="vXu9Ql8eu3LgkFeFbtVx-40" vertex="1">
                    <mxGeometry y="60" width="140" height="30" as="geometry"/>
                </mxCell>
                <mxCell id="vXu9Ql8eu3LgkFeFbtVx-61" value="Show Details" style="swimlane;fontStyle=0;childLayout=stackLayout;horizontal=1;startSize=30;horizontalStack=0;resizeParent=1;resizeParentMax=0;resizeLast=0;collapsible=1;marginBottom=0;whiteSpace=wrap;html=1;fillColor=#1ba1e2;fontColor=#ffffff;strokeColor=#FFFFFF;rounded=0;" parent="1" vertex="1">
                    <mxGeometry x="750" y="690" width="140" height="60" as="geometry"/>
                </mxCell>
                <mxCell id="vXu9Ql8eu3LgkFeFbtVx-62" value="Props" style="text;strokeColor=none;fillColor=none;align=left;verticalAlign=middle;spacingLeft=4;spacingRight=4;overflow=hidden;points=[[0,0.5],[1,0.5]];portConstraint=eastwest;rotatable=0;whiteSpace=wrap;html=1;rounded=0;" parent="vXu9Ql8eu3LgkFeFbtVx-61" vertex="1">
                    <mxGeometry y="30" width="140" height="30" as="geometry"/>
                </mxCell>
                <mxCell id="15" value="Search" style="swimlane;fontStyle=0;childLayout=stackLayout;horizontal=1;startSize=30;horizontalStack=0;resizeParent=1;resizeParentMax=0;resizeLast=0;collapsible=1;marginBottom=0;whiteSpace=wrap;html=1;fillColor=#1ba1e2;fontColor=#ffffff;strokeColor=#FFFFFF;swimlaneFillColor=none;rounded=0;" parent="1" vertex="1">
                    <mxGeometry x="570" y="400" width="140" height="90" as="geometry"/>
                </mxCell>
                <mxCell id="16" value="Props" style="text;strokeColor=default;fillColor=none;align=left;verticalAlign=middle;spacingLeft=4;spacingRight=4;overflow=hidden;points=[[0,0.5],[1,0.5]];portConstraint=eastwest;rotatable=0;whiteSpace=wrap;html=1;rounded=0;" parent="15" vertex="1">
                    <mxGeometry y="30" width="140" height="30" as="geometry"/>
                </mxCell>
                <mxCell id="17" value="State" style="text;strokeColor=none;fillColor=none;align=left;verticalAlign=middle;spacingLeft=4;spacingRight=4;overflow=hidden;points=[[0,0.5],[1,0.5]];portConstraint=eastwest;rotatable=0;whiteSpace=wrap;html=1;rounded=0;" parent="15" vertex="1">
                    <mxGeometry y="60" width="140" height="30" as="geometry"/>
                </mxCell>
            </root>
        </mxGraphModel>
    </diagram>
</mxfile>